<svg width="32" height="28" viewBox="0 0 32 28" fill="none" xmlns="http://www.w3.org/2000/svg">
<path fill-rule="evenodd" clip-rule="evenodd" d="M19.2824 1.32441C20.3342 0.888611 21.4615 0.664307 22.6 0.664307C23.7384 0.664307 24.8657 0.888611 25.9175 1.32441C26.969 1.76012 27.9245 2.39871 28.7292 3.20371C29.5342 4.00845 30.1732 4.96432 30.609 6.01588C31.0447 7.06763 31.2691 8.19494 31.2691 9.33341C31.2691 10.4719 31.0447 11.5992 30.609 12.6509C30.1732 13.7026 29.5345 14.6581 28.7294 15.4629C28.7294 15.463 28.7295 15.4628 28.7294 15.4629L16.9428 27.2495C16.4221 27.7702 15.5778 27.7702 15.0571 27.2495L3.27048 15.4629C1.64484 13.8372 0.731567 11.6324 0.731567 9.33341C0.731567 7.03441 1.64484 4.82957 3.27048 3.20393C4.89612 1.57829 7.10096 0.66502 9.39995 0.66502C11.699 0.66502 13.9038 1.57829 15.5294 3.20393L16 3.67446L16.4703 3.20415C16.4702 3.20423 16.4703 3.20408 16.4703 3.20415C17.275 2.39905 18.2308 1.76016 19.2824 1.32441ZM22.6 3.33097C21.8118 3.33097 21.0313 3.48626 20.3032 3.78797C19.5751 4.08967 18.9135 4.53188 18.3563 5.08933L16.9428 6.50288C16.4221 7.02358 15.5778 7.02358 15.0571 6.50288L13.6438 5.08955C12.5183 3.96401 10.9917 3.33169 9.39995 3.33169C7.8082 3.33169 6.28164 3.96401 5.1561 5.08955C4.03056 6.21509 3.39823 7.74165 3.39823 9.33341C3.39823 10.9252 4.03056 12.4517 5.1561 13.5773L16 24.4211L26.8438 13.5773C27.4013 13.0201 27.8437 12.3583 28.1454 11.6302C28.4471 10.902 28.6024 10.1216 28.6024 9.33341C28.6024 8.54524 28.4471 7.76479 28.1454 7.03666C27.8437 6.30852 27.4015 5.64696 26.844 5.08977C26.2868 4.53232 25.6248 4.08967 24.8967 3.78797C24.1686 3.48626 23.3881 3.33097 22.6 3.33097Z" fill="#5900E6"/>
</svg>
