<svg width="24" height="24" viewBox="0 0 24 24" fill="none" xmlns="http://www.w3.org/2000/svg">
<path d="M18.9963 6.19858C18.8025 8.658 17.9626 14.6353 17.5362 17.3905C17.3553 18.5579 16.9935 18.9471 16.6576 18.9938C15.9082 19.0716 15.3397 18.4023 14.6161 17.8263C13.4791 16.9235 12.833 16.3631 11.7347 15.4915C10.4556 14.4797 11.2825 13.9193 12.019 13.0165C12.2128 12.783 15.5206 9.15611 15.5852 8.82923C15.5941 8.77971 15.5929 8.72831 15.5817 8.67949C15.5704 8.63066 15.5494 8.58588 15.5206 8.54904C15.443 8.47121 15.3397 8.50234 15.2492 8.51791C15.1329 8.54904 13.324 9.99667 9.7966 12.8608C9.27977 13.2811 8.81461 13.499 8.40115 13.4834C7.93599 13.4679 7.05737 13.1721 6.39841 12.9075C5.58439 12.5962 4.95127 12.425 5.00295 11.8802C5.02879 11.6 5.35182 11.3198 5.9591 11.024C9.732 9.04715 12.2386 7.73961 13.492 7.11697C17.084 5.31132 17.8205 5 18.3115 5C18.4148 5 18.6603 5.03113 18.8154 5.18679C18.9446 5.31132 18.9833 5.48255 18.9963 5.60707C18.9833 5.70047 19.0092 5.98066 18.9963 6.19858Z" fill="#828282"/>
</svg>
