<svg width="34" height="34" viewBox="0 0 34 34" fill="none" xmlns="http://www.w3.org/2000/svg">
<path fill-rule="evenodd" clip-rule="evenodd" d="M16.9999 33.6666C26.2047 33.6666 33.6666 26.2047 33.6666 16.9999C33.6666 7.79517 26.2047 0.333252 16.9999 0.333252C7.79517 0.333252 0.333252 7.79517 0.333252 16.9999C0.333252 26.2047 7.79517 33.6666 16.9999 33.6666ZM9.49992 12.8333C9.49992 10.9923 10.9923 9.49992 12.8333 9.49992H21.1666C23.0075 9.49992 24.4999 10.9923 24.4999 12.8333V21.1666C24.4999 23.0075 23.0075 24.4999 21.1666 24.4999H12.8333C10.9923 24.4999 9.49992 23.0075 9.49992 21.1666V12.8333ZM12.8333 7.83325C10.0718 7.83325 7.83325 10.0718 7.83325 12.8333V21.1666C7.83325 23.928 10.0718 26.1666 12.8333 26.1666H21.1666C23.928 26.1666 26.1666 23.928 26.1666 21.1666V12.8333C26.1666 10.0718 23.928 7.83325 21.1666 7.83325H12.8333ZM15.8845 14.7448C16.3513 14.5026 16.8825 14.4138 17.4027 14.4909C17.9333 14.5696 18.4245 14.8168 18.8037 15.1961C19.183 15.5754 19.4303 16.0666 19.5089 16.5972C19.5861 17.1173 19.4972 17.6485 19.255 18.1153C19.0128 18.582 18.6296 18.9605 18.1599 19.1969C17.6902 19.4334 17.158 19.5156 16.6388 19.4321C16.1196 19.3486 15.64 19.1035 15.2682 18.7316C14.8964 18.3598 14.6513 17.8802 14.5677 17.361C14.4842 16.8419 14.5665 16.3096 14.8029 15.8399C15.0393 15.3702 15.4178 14.987 15.8845 14.7448ZM17.6472 12.8423C16.7802 12.7137 15.8948 12.8618 15.1169 13.2654C14.339 13.6691 13.7082 14.3077 13.3142 15.0906C12.9201 15.8734 12.783 16.7605 12.9222 17.6258C13.0615 18.4911 13.47 19.2904 14.0897 19.9101C14.7094 20.5299 15.5087 20.9384 16.374 21.0776C17.2393 21.2168 18.1264 21.0797 18.9093 20.6857C19.6921 20.2917 20.3308 19.6608 20.7344 18.8829C21.138 18.105 21.2861 17.2196 21.1576 16.3527C21.0264 15.4684 20.6144 14.6497 19.9823 14.0176C19.3501 13.3855 18.5314 12.9734 17.6472 12.8423ZM20.7499 12.4166C20.7499 11.9563 21.123 11.5833 21.5833 11.5833H21.5933C22.0535 11.5833 22.4266 11.9563 22.4266 12.4166C22.4266 12.8768 22.0535 13.2499 21.5933 13.2499H21.5833C21.123 13.2499 20.7499 12.8768 20.7499 12.4166Z" fill="#F2F2F2"/>
</svg>
