<svg width="15" height="18" viewBox="0 0 15 18" fill="none" xmlns="http://www.w3.org/2000/svg">
<g clip-path="url(#clip0_141_2931)">
<path d="M2.41601 0.426959C2.8025 0.381191 3.20343 0.464894 3.53728 0.663171C3.87952 0.863751 4.15017 1.1809 4.29178 1.54873C4.44225 1.93392 4.44893 2.37148 4.31104 2.76112C4.17408 3.15399 3.89101 3.49433 3.52827 3.70397C3.18433 3.90594 2.76989 3.98549 2.37424 3.92959C1.95001 3.87245 1.55094 3.65575 1.27237 3.33445C1.00793 3.03358 0.852497 2.64164 0.839764 2.24309C0.823305 1.82488 0.964454 1.40298 1.23045 1.07739C1.51911 0.718 1.95467 0.477795 2.41601 0.426959Z" fill="#FF8A00"/>
<path d="M0.908386 4.70734C2.05233 4.70734 3.19612 4.70734 4.34006 4.70734C4.33913 4.84879 4.34426 4.99039 4.33168 5.13138C3.50373 5.49691 2.74162 6.01863 2.12888 6.68181C1.63323 7.21812 1.24068 7.85242 1.01382 8.54508C0.978728 8.54908 0.943479 8.55368 0.908386 8.5586C0.908386 7.27479 0.908386 5.99114 0.908386 4.70734Z" fill="#FF8A00"/>
<path d="M6.72672 4.86153C7.10669 4.81638 7.49054 4.79519 7.87284 4.82252C9.22377 4.90653 10.5564 5.37158 11.6357 6.18481C11.7165 6.24839 11.8025 6.30537 11.8836 6.3688C12.3559 6.73049 12.7606 7.18019 13.0609 7.69146C13.1458 7.84213 13.241 7.98681 13.3218 8.13978C13.6742 8.78851 13.9089 9.50068 14.0047 10.2313C14.0294 10.4044 14.0351 10.5791 14.0469 10.7535C14.1742 12.8972 14.0641 15.0443 14.0915 17.1898C13.0176 17.1898 11.9436 17.1898 10.8696 17.1898C10.8696 16.3183 10.8696 15.4468 10.8696 14.5752C10.871 13.6488 10.8666 12.7219 10.8721 11.7958C10.857 11.0142 10.5988 10.2476 10.184 9.58592C9.70358 8.8392 8.90343 8.28061 8.01057 8.1539C7.31523 8.0616 6.573 8.15022 5.96539 8.51467C5.48681 8.77884 5.09147 9.17616 4.80203 9.63399C4.42424 10.2317 4.20902 10.9239 4.1466 11.6243C4.1452 13.4794 4.14644 15.3347 4.14598 17.1898C3.07191 17.1898 1.99799 17.1898 0.924082 17.1898C0.93138 16.7945 0.926411 16.3989 0.927809 16.0036C0.91725 14.7545 0.897684 13.5051 0.913523 12.256C0.923927 11.6962 0.941007 11.1362 0.97579 10.5771C1.04504 9.56135 1.39349 8.5715 1.94396 7.71358C2.29054 7.08588 2.82362 6.58059 3.40405 6.16392C3.74551 5.91788 4.10452 5.69426 4.48511 5.51196C5.18821 5.17223 5.95048 4.95553 6.72672 4.86153Z" fill="white"/>
</g>
<defs>
<clipPath id="clip0_141_2931">
<rect width="15" height="18" fill="white"/>
</clipPath>
</defs>
</svg>
