<svg width="150" height="40" viewBox="0 0 150 40" fill="none" xmlns="http://www.w3.org/2000/svg">
<path d="M30.8853 6.68427C34.3279 5.56848 38.164 5.62813 41.5293 6.979C44.6734 8.24567 47.2659 10.8036 48.5692 13.9299C49.8935 16.9825 50.1394 20.4351 49.5352 23.6878C46.2261 24.2071 42.9064 24.6632 39.6043 25.2387C42.2354 22.6772 42.0879 17.8808 39.3373 15.4562C37.205 13.5369 33.5481 13.6597 31.5844 15.7685C28.7284 18.6702 29.2729 24.3439 33.0317 26.2316C29.8455 26.6878 26.6663 27.2036 23.4837 27.6843C21.3232 23.372 21.2038 18.1018 23.157 13.6913C24.6078 10.4141 27.4884 7.82111 30.8853 6.68427Z" fill="white"/>
<path d="M94.6125 9.55082C100.05 4.41047 109.767 4.68415 114.766 10.3122C115.598 11.214 116.259 12.2596 116.828 13.3438C113.828 13.8175 110.824 14.2666 107.824 14.7333C106.63 14.9859 105.604 13.9859 104.392 14.1192C102.692 13.9543 101.115 14.7543 99.8888 15.8666C96.808 16.5438 93.6289 16.8491 90.5129 17.3929C91.0574 14.4491 92.3818 11.5894 94.6125 9.55082Z" fill="white"/>
<path d="M3.51294 6.57178C9.83612 6.57178 16.1593 6.57178 22.4825 6.57178C22.4825 8.82792 22.4825 11.0805 22.4825 13.3332C18.5024 13.3332 14.5188 13.3332 10.5387 13.3332C10.5387 14.5016 10.5387 15.6735 10.5387 16.842C13.7565 16.842 16.9708 16.842 20.1886 16.842C20.1886 19.0981 20.1886 21.3507 20.1886 23.6034C16.9708 23.5998 13.7565 23.6034 10.5387 23.5998C10.5352 25.6244 10.5422 27.649 10.5352 29.6735C8.19561 30.0279 5.85603 30.3928 3.51294 30.7507C3.51294 22.6911 3.51294 14.6314 3.51294 6.57178Z" fill="white"/>
<path d="M50.8419 6.66672C54.7482 6.69479 58.6545 6.61058 62.5573 6.71234C65.4379 6.75444 68.5363 7.67725 70.3665 10.0281C72.5655 12.8772 72.829 16.8667 71.8735 20.2387C64.8688 21.3474 57.8501 22.3965 50.8384 23.4843C50.8489 17.8772 50.8419 12.2737 50.8419 6.66672ZM58.1241 18.9439C59.4836 18.9053 60.9203 19.1369 62.2026 18.586C64.0292 17.7965 64.0363 14.7825 62.2869 13.9088C60.9801 13.3194 59.5152 13.5299 58.1311 13.5018C58.1206 15.3158 58.1276 17.1299 58.1241 18.9439Z" fill="white"/>
<path d="M119.087 6.6665C121.781 6.6665 124.472 6.6665 127.166 6.6665C127.166 8.36475 127.166 10.063 127.163 11.7647C124.472 12.1753 121.778 12.5893 119.087 13.0033C119.087 10.8911 119.087 8.77878 119.087 6.6665Z" fill="white"/>
<path d="M135.432 6.6665C138.12 6.6665 140.803 6.6665 143.491 6.6665C143.491 7.52966 143.487 8.38931 143.487 9.25247C140.8 9.67352 138.113 10.0805 135.429 10.4946C135.436 9.21738 135.432 7.9437 135.432 6.6665Z" fill="white"/>
<path d="M69.1582 6.84559C72.2214 6.80699 75.2812 6.93681 78.3444 6.91927C79.6477 9.78594 80.9545 12.6526 82.2296 15.5298C83.3994 12.6596 84.6324 9.81752 85.7741 6.93681C88.746 6.90524 91.7144 6.93681 94.6863 6.91927C92.5399 10.4842 90.5903 14.1824 88.3666 17.6842C84.6922 18.3228 80.9966 18.8456 77.3081 19.4035C74.5751 15.2245 71.9264 10.9965 69.1582 6.84559Z" fill="white"/>
<path d="M135.436 16.9299C138.123 16.6001 140.807 16.2808 143.491 15.9509C143.375 19.4948 143.754 23.0737 143.224 26.5895C142.676 29.8351 140.796 32.9825 137.814 34.5264C134.61 36.1755 130.774 36.4316 127.307 35.5439C124.237 34.7579 121.525 32.593 120.271 29.6597C118.648 26.3088 119.167 22.5053 119.087 18.9088C121.781 18.5825 124.472 18.2527 127.166 17.9299C127.215 20.1509 127.057 22.3755 127.268 24.5895C127.391 26.0386 128.076 27.5334 129.411 28.2386C130.978 28.8983 133.043 28.6948 134.182 27.3404C135.137 26.2702 135.327 24.7825 135.425 23.4071C135.453 21.2492 135.418 19.0878 135.436 16.9299Z" fill="white"/>
<path d="M109.964 20.014C112.732 19.6701 115.504 19.3613 118.268 18.9929C118.651 22.9578 117.534 27.1684 114.889 30.1999C110.196 35.635 101.217 36.2034 95.575 31.9473C92.5679 29.6877 90.8185 26.0701 90.397 22.3824C93.0351 22.0631 95.6733 21.7578 98.308 21.4175C98.5925 23.1473 99.411 24.8877 100.911 25.8806C103.057 27.3719 106.293 27.1719 108.105 25.242C109.525 23.9157 110.08 21.9087 109.964 20.014Z" fill="white"/>
<path d="M78.8783 23.7858C81.2705 23.4875 83.6663 23.2033 86.0621 22.9121C86.1605 26.8525 86.1886 30.7963 86.3361 34.7332C83.849 34.7402 81.3619 34.7367 78.8748 34.7367C78.8783 31.0875 78.8748 27.4349 78.8783 23.7858Z" fill="white"/>
<path d="M50.8454 27.1825C56.4695 26.4913 62.0972 25.8211 67.7213 25.1299C69.7201 28.3615 71.6838 31.6106 73.6826 34.8387C70.6862 34.8141 67.6932 34.8527 64.6967 34.8176C63.0983 32.0948 61.4824 29.386 59.877 26.6667C59.3536 26.6667 58.8337 26.6667 58.3138 26.6667C58.3138 29.386 58.3138 32.1088 58.3138 34.8316C55.8232 34.8281 53.3325 34.8316 50.8454 34.8281C50.8419 32.2808 50.8419 29.7299 50.8454 27.1825Z" fill="white"/>
<path d="M25.2366 30.2737C32.9122 29.3544 40.5879 28.4316 48.26 27.4807C46.8267 30.1684 44.5293 32.4246 41.6979 33.5965C36.2284 35.8772 29.2623 34.7895 25.2366 30.2737Z" fill="white"/>
<path d="M3.51294 32.9156C5.85603 32.6279 8.19561 32.3472 10.5387 32.063C10.5387 32.9226 10.5387 33.7823 10.5387 34.6454C8.19561 34.6419 5.85603 34.6419 3.51294 34.6454C3.51294 34.0665 3.51294 33.4911 3.51294 32.9156Z" fill="white"/>
</svg>
