<svg width="165" height="44" viewBox="0 0 165 44" fill="none" xmlns="http://www.w3.org/2000/svg">
<path d="M33.974 7.35235C37.7609 6.12498 41.9806 6.1906 45.6824 7.67656C49.1409 9.0699 51.9926 11.8836 53.4262 15.3225C54.883 18.6804 55.1535 22.4783 54.4889 26.0562C50.8488 26.6275 47.1972 27.1292 43.5649 27.7622C46.4591 24.9446 46.2968 19.6685 43.2712 17.0015C40.9257 14.8903 36.9031 15.0253 34.743 17.345C31.6014 20.5369 32.2004 26.778 36.335 28.8545C32.8302 29.3562 29.3331 29.9236 25.8322 30.4524C23.4557 25.7089 23.3244 19.9117 25.4728 15.0601C27.0687 11.4552 30.2374 8.60288 33.974 7.35235Z" fill="#242424"/>
<path d="M104.074 10.5056C110.055 4.85124 120.744 5.15229 126.242 11.3432C127.158 12.3351 127.885 13.4853 128.511 14.6779C125.211 15.199 121.907 15.693 118.607 16.2063C117.293 16.4842 116.165 15.3842 114.832 15.5309C112.961 15.3495 111.226 16.2295 109.878 17.453C106.489 18.1979 102.992 18.5337 99.5642 19.132C100.163 15.8937 101.62 12.7481 104.074 10.5056Z" fill="#242424"/>
<path d="M3.86426 7.229C10.8198 7.229 17.7753 7.229 24.7308 7.229C24.7308 9.71076 24.7308 12.1887 24.7308 14.6666C20.3527 14.6666 15.9707 14.6666 11.5926 14.6666C11.5926 15.9518 11.5926 17.2409 11.5926 18.5262C15.1322 18.5262 18.6679 18.5262 22.2075 18.5262C22.2075 21.008 22.2075 23.4859 22.2075 25.9638C18.6679 25.9599 15.1322 25.9638 11.5926 25.9599C11.5887 28.1869 11.5965 30.4139 11.5887 32.641C9.01519 33.0308 6.44166 33.4322 3.86426 33.8259C3.86426 24.9603 3.86426 16.0946 3.86426 7.229Z" fill="#242424"/>
<path d="M55.9262 7.33313C60.2232 7.364 64.5201 7.27137 68.8132 7.3833C71.9818 7.42962 75.39 8.44471 77.4033 11.0307C79.8222 14.1647 80.1121 18.5531 79.061 22.2623C71.3559 23.4819 63.6352 24.636 55.9224 25.8324C55.934 19.6647 55.9262 13.5009 55.9262 7.33313ZM63.9367 20.8381C65.4321 20.7956 67.0125 21.0503 68.423 20.4444C70.4323 19.5759 70.44 16.2605 68.5157 15.2994C67.0782 14.651 65.4669 14.8826 63.9444 14.8517C63.9328 16.8472 63.9405 18.8426 63.9367 20.8381Z" fill="#242424"/>
<path d="M130.995 7.33301C133.959 7.33301 136.919 7.33301 139.883 7.33301C139.883 9.20108 139.883 11.0692 139.879 12.9411C136.919 13.3927 133.955 13.8481 130.995 14.3035C130.995 11.98 130.995 9.65652 130.995 7.33301Z" fill="#242424"/>
<path d="M148.975 7.33301C151.931 7.33301 154.884 7.33301 157.84 7.33301C157.84 8.28248 157.836 9.2281 157.836 10.1776C154.88 10.6407 151.924 11.0885 148.971 11.5439C148.979 10.139 148.975 8.73792 148.975 7.33301Z" fill="#242424"/>
<path d="M76.074 7.5299C79.4435 7.48744 82.8092 7.63025 86.1788 7.61095C87.6124 10.7643 89.0499 13.9176 90.4526 17.0825C91.7393 13.9253 93.0956 10.799 94.3515 7.63025C97.6206 7.59552 100.886 7.63025 104.155 7.61095C101.794 11.5324 99.6493 15.6004 97.2033 19.4524C93.1613 20.1548 89.0962 20.7299 85.0389 21.3436C82.0325 16.7468 79.1189 12.0959 76.074 7.5299Z" fill="#242424"/>
<path d="M148.979 18.6227C151.935 18.2599 154.888 17.9087 157.84 17.5459C157.712 21.4441 158.13 25.381 157.546 29.2484C156.943 32.8185 154.876 36.2807 151.595 37.9789C148.071 39.7929 143.852 40.0747 140.038 39.0982C136.66 38.2336 133.677 35.8522 132.298 32.6256C130.512 28.9396 131.084 24.7557 130.995 20.7996C133.959 20.4406 136.919 20.0778 139.883 19.7227C139.937 22.1659 139.763 24.6129 139.995 27.0484C140.13 28.6424 140.884 30.2866 142.352 31.0624C144.076 31.788 146.348 31.5642 147.6 30.0743C148.651 28.8971 148.86 27.2606 148.968 25.7477C148.999 23.374 148.96 20.9964 148.979 18.6227Z" fill="#242424"/>
<path d="M120.96 22.0152C124.005 21.637 127.054 21.2974 130.095 20.8921C130.516 25.2535 129.287 29.8851 126.378 33.2198C121.215 39.1984 111.338 39.8237 105.132 35.1419C101.825 32.6563 99.9002 28.677 99.4365 24.6205C102.339 24.2693 105.241 23.9335 108.139 23.5591C108.452 25.4619 109.352 27.3763 111.002 28.4686C113.363 30.1089 116.922 29.8889 118.916 27.7661C120.477 26.3072 121.087 24.0995 120.96 22.0152Z" fill="#242424"/>
<path d="M86.7663 26.1642C89.3978 25.8361 92.0332 25.5235 94.6685 25.2031C94.7767 29.5375 94.8077 33.8758 94.9699 38.2063C92.2341 38.214 89.4983 38.2102 86.7625 38.2102C86.7663 34.1961 86.7624 30.1782 86.7663 26.1642Z" fill="#242424"/>
<path d="M55.9299 29.9005C62.1164 29.1401 68.3068 28.4029 74.4934 27.6426C76.6921 31.1973 78.8521 34.7714 81.0509 38.3222C77.7547 38.2952 74.4625 38.3377 71.1663 38.2991C69.4081 35.304 67.6306 32.3243 65.8647 29.3331C65.2889 29.3331 64.717 29.3331 64.1451 29.3331C64.1451 32.3243 64.1451 35.3194 64.1451 38.3145C61.4054 38.3107 58.6657 38.3145 55.9299 38.3107C55.926 35.5086 55.926 32.7026 55.9299 29.9005Z" fill="#242424"/>
<path d="M27.76 33.3008C36.2032 32.2896 44.6464 31.2745 53.0858 30.2285C51.5092 33.185 48.982 35.6668 45.8675 36.9559C39.851 39.4647 32.1883 38.2682 27.76 33.3008Z" fill="#242424"/>
<path d="M3.86426 36.2072C6.44166 35.8907 9.0152 35.5819 11.5926 35.2693C11.5926 36.2149 11.5926 37.1605 11.5926 38.11C9.0152 38.1061 6.44166 38.1061 3.86426 38.11C3.86426 37.4731 3.86426 36.8402 3.86426 36.2072Z" fill="#242424"/>
</svg>
