<svg width="19" height="15" viewBox="0 0 19 15" fill="none" xmlns="http://www.w3.org/2000/svg">
<path d="M10 14V12H13L16.55 7L13 2H3V5H1V2C1 1.45 1.19567 0.979333 1.587 0.588C1.979 0.196 2.45 0 3 0H13C13.3333 0 13.646 0.0749999 13.938 0.225C14.2293 0.375 14.4667 0.583333 14.65 0.85L18.175 5.85C18.4083 6.2 18.525 6.58333 18.525 7C18.525 7.41667 18.4083 7.8 18.175 8.15L14.65 13.15C14.4667 13.4167 14.2293 13.625 13.938 13.775C13.646 13.925 13.3333 14 13 14H10ZM4 15C3.71667 15 3.479 14.904 3.287 14.712C3.09567 14.5207 3 14.2833 3 14V12H1C0.716667 12 0.479333 11.904 0.288 11.712C0.0960001 11.5207 0 11.2833 0 11C0 10.7167 0.0960001 10.479 0.288 10.287C0.479333 10.0957 0.716667 10 1 10H3V8C3 7.71667 3.09567 7.479 3.287 7.287C3.479 7.09567 3.71667 7 4 7C4.28333 7 4.521 7.09567 4.713 7.287C4.90433 7.479 5 7.71667 5 8V10H7C7.28333 10 7.521 10.0957 7.713 10.287C7.90433 10.479 8 10.7167 8 11C8 11.2833 7.90433 11.5207 7.713 11.712C7.521 11.904 7.28333 12 7 12H5V14C5 14.2833 4.90433 14.5207 4.713 14.712C4.521 14.904 4.28333 15 4 15Z" fill="#5900E6"/>
</svg>
