<svg width="72" height="72" viewBox="0 0 72 72" fill="none" xmlns="http://www.w3.org/2000/svg">
<g filter="url(#filter0_d_0_961)">
<rect x="10" y="8" width="48" height="48" rx="24" fill="white" shape-rendering="crispEdges"/>
<path fill-rule="evenodd" clip-rule="evenodd" d="M26 32C26 31.4477 26.4477 31 27 31H41C41.5523 31 42 31.4477 42 32C42 32.5523 41.5523 33 41 33H27C26.4477 33 26 32.5523 26 32Z" fill="#828282"/>
<path fill-rule="evenodd" clip-rule="evenodd" d="M33.2929 24.2929C33.6834 23.9024 34.3166 23.9024 34.7071 24.2929L41.7071 31.2929C42.0976 31.6834 42.0976 32.3166 41.7071 32.7071L34.7071 39.7071C34.3166 40.0976 33.6834 40.0976 33.2929 39.7071C32.9024 39.3166 32.9024 38.6834 33.2929 38.2929L39.5858 32L33.2929 25.7071C32.9024 25.3166 32.9024 24.6834 33.2929 24.2929Z" fill="#828282"/>
<rect x="10.75" y="8.75" width="46.5" height="46.5" rx="23.25" stroke="white" stroke-width="1.5" shape-rendering="crispEdges"/>
</g>
<defs>
<filter id="filter0_d_0_961" x="0" y="0" width="72" height="72" filterUnits="userSpaceOnUse" color-interpolation-filters="sRGB">
<feFlood flood-opacity="0" result="BackgroundImageFix"/>
<feColorMatrix in="SourceAlpha" type="matrix" values="0 0 0 0 0 0 0 0 0 0 0 0 0 0 0 0 0 0 127 0" result="hardAlpha"/>
<feOffset dx="2" dy="4"/>
<feGaussianBlur stdDeviation="6"/>
<feComposite in2="hardAlpha" operator="out"/>
<feColorMatrix type="matrix" values="0 0 0 0 0 0 0 0 0 0 0 0 0 0 0 0 0 0 0.08 0"/>
<feBlend mode="normal" in2="BackgroundImageFix" result="effect1_dropShadow_0_961"/>
<feBlend mode="normal" in="SourceGraphic" in2="effect1_dropShadow_0_961" result="shape"/>
</filter>
</defs>
</svg>
