<svg width="72" height="72" viewBox="0 0 72 72" fill="none" xmlns="http://www.w3.org/2000/svg">
<g filter="url(#filter0_d_46_4270)">
<rect width="48" height="48" rx="24" transform="matrix(-1 0 0 1 58 8)" fill="white" shape-rendering="crispEdges"/>
<path fill-rule="evenodd" clip-rule="evenodd" d="M42 32C42 31.4477 41.5523 31 41 31H27C26.4477 31 26 31.4477 26 32C26 32.5523 26.4477 33 27 33H41C41.5523 33 42 32.5523 42 32Z" fill="#5900E6"/>
<path fill-rule="evenodd" clip-rule="evenodd" d="M34.7071 24.2929C34.3166 23.9024 33.6834 23.9024 33.2929 24.2929L26.2929 31.2929C25.9024 31.6834 25.9024 32.3166 26.2929 32.7071L33.2929 39.7071C33.6834 40.0976 34.3166 40.0976 34.7071 39.7071C35.0976 39.3166 35.0976 38.6834 34.7071 38.2929L28.4142 32L34.7071 25.7071C35.0976 25.3166 35.0976 24.6834 34.7071 24.2929Z" fill="#5900E6"/>
<rect x="-0.75" y="0.75" width="46.5" height="46.5" rx="23.25" transform="matrix(-1 0 0 1 56.5 8)" stroke="white" stroke-width="1.5" shape-rendering="crispEdges"/>
</g>
<defs>
<filter id="filter0_d_46_4270" x="0" y="0" width="72" height="72" filterUnits="userSpaceOnUse" color-interpolation-filters="sRGB">
<feFlood flood-opacity="0" result="BackgroundImageFix"/>
<feColorMatrix in="SourceAlpha" type="matrix" values="0 0 0 0 0 0 0 0 0 0 0 0 0 0 0 0 0 0 127 0" result="hardAlpha"/>
<feOffset dx="2" dy="4"/>
<feGaussianBlur stdDeviation="6"/>
<feComposite in2="hardAlpha" operator="out"/>
<feColorMatrix type="matrix" values="0 0 0 0 0 0 0 0 0 0 0 0 0 0 0 0 0 0 0.08 0"/>
<feBlend mode="normal" in2="BackgroundImageFix" result="effect1_dropShadow_46_4270"/>
<feBlend mode="normal" in="SourceGraphic" in2="effect1_dropShadow_46_4270" result="shape"/>
</filter>
</defs>
</svg>
