<svg width="20" height="20" viewBox="0 0 20 20" fill="none" xmlns="http://www.w3.org/2000/svg">
<path d="M10 1.66675L12.575 6.88341L18.3334 7.72508L14.1667 11.7834L15.15 17.5167L10 14.8084L4.85002 17.5167L5.83335 11.7834L1.66669 7.72508L7.42502 6.88341L10 1.66675Z" fill="#FFD230"/>
<path fill-rule="evenodd" clip-rule="evenodd" d="M10 0.833252C10.3172 0.833252 10.6069 1.01331 10.7473 1.29773L13.1286 6.12197L18.4539 6.90035C18.7677 6.94621 19.0282 7.16622 19.126 7.46789C19.2239 7.76956 19.142 8.10061 18.9148 8.32188L15.0621 12.0744L15.9713 17.3757C16.025 17.6884 15.8964 18.0044 15.6398 18.1908C15.3831 18.3772 15.0429 18.4018 14.7621 18.2541L10 15.7498L5.23788 18.2541C4.95712 18.4018 4.61687 18.3772 4.36023 18.1908C4.10358 18.0044 3.97504 17.6884 4.02866 17.3757L4.9379 12.0744L1.08523 8.32188C0.858045 8.10061 0.776151 7.76956 0.873966 7.46789C0.97178 7.16622 1.23235 6.94621 1.54615 6.90035L6.87145 6.12197L9.25275 1.29773C9.39314 1.01331 9.68282 0.833252 10 0.833252ZM10 3.5493L8.17226 7.25211C8.05098 7.49781 7.81666 7.66819 7.54553 7.70782L3.45701 8.30542L6.41478 11.1863C6.61134 11.3777 6.70106 11.6537 6.65468 11.9241L5.95682 15.993L9.61213 14.0707C9.85495 13.943 10.1451 13.943 10.3879 14.0707L14.0432 15.993L13.3453 11.9241C13.2989 11.6537 13.3887 11.3777 13.5852 11.1863L16.543 8.30542L12.4545 7.70782C12.1834 7.66819 11.949 7.49781 11.8277 7.25211L10 3.5493Z" fill="#FFD230"/>
</svg>
