<svg width="34" height="34" viewBox="0 0 34 34" fill="none" xmlns="http://www.w3.org/2000/svg">
<path d="M16.9999 0.333252C7.79992 0.333252 0.333252 7.79992 0.333252 16.9999C0.333252 26.1999 7.79992 33.6666 16.9999 33.6666C26.1999 33.6666 33.6666 26.1999 33.6666 16.9999C33.6666 7.79992 26.1999 0.333252 16.9999 0.333252ZM24.7333 11.6666C24.4833 14.2999 23.3999 20.6999 22.8499 23.6499C22.6166 24.8999 22.1499 25.3166 21.7166 25.3666C20.7499 25.4499 20.0166 24.7333 19.0833 24.1166C17.6166 23.1499 16.7833 22.5499 15.3666 21.6166C13.7166 20.5333 14.7833 19.9333 15.7333 18.9666C15.9833 18.7166 20.2499 14.8333 20.3333 14.4833C20.3448 14.4302 20.3433 14.3752 20.3288 14.3229C20.3142 14.2706 20.2872 14.2227 20.2499 14.1833C20.1499 14.0999 20.0166 14.1333 19.8999 14.1499C19.7499 14.1833 17.4166 15.7333 12.8666 18.7999C12.1999 19.2499 11.5999 19.4833 11.0666 19.4666C10.4666 19.4499 9.33325 19.1333 8.48325 18.8499C7.43325 18.5166 6.61659 18.3333 6.68325 17.7499C6.71659 17.4499 7.13325 17.1499 7.91659 16.8333C12.7833 14.7166 16.0166 13.3166 17.6333 12.6499C22.2666 10.7166 23.2166 10.3833 23.8499 10.3833C23.9833 10.3833 24.2999 10.4166 24.4999 10.5833C24.6666 10.7166 24.7166 10.8999 24.7333 11.0333C24.7166 11.1333 24.7499 11.4333 24.7333 11.6666Z" fill="#F2F2F2"/>
</svg>
