<svg width="24" height="24" viewBox="0 0 24 24" fill="none" xmlns="http://www.w3.org/2000/svg">
<path d="M19.8263 23.0335C19.8743 23.5657 18.5438 24.2442 18.1253 23.9119C14.521 21.0515 9.48211 21.0508 5.87701 23.9096C5.45826 24.2417 4.12628 23.5621 4.1741 23.0299C4.39399 20.5826 3.4173 19.606 0.970019 19.8258C0.437711 19.8737 -0.241804 18.5416 0.0902892 18.1229C2.94913 14.518 2.94834 9.47972 0.0879408 5.87568C-0.244274 5.4571 0.434149 4.12652 0.96639 4.17445C3.41634 4.39507 4.39411 3.41849 4.1741 0.970025C4.12627 0.437723 5.45826 -0.241799 5.87701 0.0902813C9.48211 2.94918 14.521 2.9484 18.1253 0.087934C18.5438 -0.244266 19.8743 0.434159 19.8263 0.966393C19.6055 3.41746 20.583 4.39513 23.0335 4.17446C23.5657 4.12654 24.2442 5.457 23.912 5.87561C21.0523 9.47968 21.0515 14.5181 23.9098 18.1229C24.2418 18.5417 23.5622 19.8737 23.0299 19.8258C20.582 19.606 19.6056 20.5837 19.8263 23.0335Z" fill="#5900E6"/>
</svg>
