<svg width="24" height="24" viewBox="0 0 24 24" fill="none" xmlns="http://www.w3.org/2000/svg">
<path d="M19.9155 16.0845C19.2594 16.7405 18.1956 16.7405 17.5396 16.0845L14.6432 13.1879C13.987 12.5319 13.987 11.4682 14.6432 10.8121L17.5396 7.91562C18.1956 7.25953 19.2594 7.25953 19.9155 7.91562L22.812 10.8121C23.4681 11.4682 23.4681 12.5319 22.812 13.1879L19.9155 16.0845ZM6.46023 16.0845C5.80415 16.7405 4.74042 16.7405 4.08435 16.0845L1.18786 13.1879C0.531781 12.5319 0.53178 11.4682 1.18786 10.8121L4.08435 7.91562C4.74042 7.25953 5.80415 7.25953 6.46023 7.91562L9.35672 10.8121C10.0128 11.4682 10.0128 12.5319 9.35672 13.1879L6.46023 16.0845ZM13.1879 22.812C12.5318 23.4682 11.4681 23.4682 10.812 22.812L7.91549 19.9156C7.25942 19.2596 7.25942 18.1958 7.91549 17.5397L10.812 14.6433C11.4681 13.9871 12.5318 13.9871 13.1879 14.6433L16.0844 17.5397C16.7404 18.1958 16.7404 19.2596 16.0844 19.9156L13.1879 22.812ZM13.1879 9.35683C12.5318 10.0129 11.4681 10.0129 10.812 9.35683L7.91549 6.46034C7.25942 5.80427 7.25942 4.74055 7.91549 4.08446L10.812 1.18798C11.4681 0.531903 12.5318 0.531902 13.1879 1.18798L16.0844 4.08446C16.7404 4.74055 16.7404 5.80427 16.0844 6.46034L13.1879 9.35683Z" fill="#5900E6"/>
</svg>
